<?xml version='1.0' encoding='ascii'?>
<svg xmlns="http://www.w3.org/2000/svg" version="1.1" width="32" height="32">
    <g id="ViewLayer_LineSet" xmlns:inkscape="http://www.inkscape.org/namespaces/inkscape" inkscape:groupmode="lineset" inkscape:label="ViewLayer_LineSet">
        <g xmlns:inkscape="http://www.inkscape.org/namespaces/inkscape" inkscape:groupmode="layer" id="strokes" inkscape:label="strokes">
            <path fill="none" stroke-width="1.0" stroke-linecap="butt" stroke-opacity="1.0" stroke="rgb(255, 0, 3)" stroke-linejoin="round" d=" M 14.797, 10.014 14.735, 10.151 14.661, 10.302 14.581, 10.462 14.499, 10.627 14.408, 10.814 14.341, 10.952 14.325, 10.973 14.264, 11.051 14.204, 11.128 14.143, 11.206 14.079, 11.288 14.010, 11.374 13.935, 11.467 13.852, 11.569 13.759, 11.681 13.723, 11.731 13.635, 11.852 13.538, 11.982 13.432, 12.120 13.321, 12.265 13.204, 12.416 13.084, 12.571 12.963, 12.728 12.843, 12.885 12.747, 13.039 12.654, 13.190 12.562, 13.337 12.472, 13.479 12.386, 13.613 12.303, 13.740 12.225, 13.858 12.151, 13.966 12.091, 14.059 12.033, 14.142 11.977, 14.218 11.920, 14.288 11.861, 14.354 11.797, 14.419 11.726, 14.485 11.645, 14.552 11.549, 14.633 11.443, 14.719 11.329, 14.810 11.208, 14.903 11.080, 15.000 10.948, 15.099 10.811, 15.200 10.672, 15.303 10.531, 15.408 10.389, 15.514 10.247, 15.620 10.105, 15.724 9.963, 15.828 9.822, 15.929 9.683, 16.027 9.545, 16.123 9.409, 16.215 9.275, 16.305 9.143, 16.391 9.012, 16.474 8.884, 16.554 8.761, 16.629 8.647, 16.694 8.550, 16.743 8.484, 16.790 8.436, 16.823 8.398, 16.848 8.364, 16.869 8.331, 16.890 8.299, 16.910 8.274, 16.925 8.236, 16.934 8.186, 16.929 8.130, 16.916 8.071, 16.903 8.009, 16.891 7.944, 16.880 7.873, 16.872 7.858, 16.870 7.780, 16.864 7.694, 16.862 7.600, 16.863 7.498, 16.869 7.390, 16.880 7.278, 16.896 7.162, 16.917 7.045, 16.945 6.927, 16.979 6.809, 17.020 6.693, 17.068 6.579, 17.123 6.468, 17.184 6.361, 17.250 6.289, 17.300 6.233, 17.339 6.135, 17.414 6.043, 17.492 5.958, 17.574 5.879, 17.657 5.809, 17.742 5.787, 17.770 5.726, 17.852 5.673, 17.933 5.630, 18.011 5.597, 18.083 5.580, 18.121 5.558, 18.187 5.544, 18.237 5.530, 18.298 5.521, 18.356 5.514, 18.475 5.517, 18.540 5.523, 18.590 5.532, 18.654 5.547, 18.719 5.560, 18.762 5.582, 18.824 5.600, 18.865 5.609, 18.885 5.627, 18.924 5.660, 18.981 5.685, 19.018 5.723, 19.072 5.766, 19.125 5.798, 19.160 5.845, 19.211 5.896, 19.261 5.928, 19.291 5.977, 19.334 6.035, 19.378 6.101, 19.424 6.175, 19.470 6.255, 19.514 6.339, 19.556 6.427, 19.593 6.521, 19.619 6.622, 19.630 6.731, 19.622 6.847, 19.599 6.967, 19.566 7.104, 19.523 7.229, 19.481 7.353, 19.436 7.476, 19.386 7.596, 19.329 7.712, 19.263 7.825, 19.190 7.937, 19.112 8.048, 19.033 8.157, 18.953 8.262, 18.876 8.359, 18.803 8.443, 18.735 8.511, 18.675 8.566, 18.622 8.613, 18.572 8.656, 18.525 8.698, 18.479 8.738, 18.433 8.778, 18.387 8.814, 18.340 8.846, 18.291 8.871, 18.251 8.903, 18.209 8.936, 18.170 8.973, 18.136 9.018, 18.105 9.076, 18.073 9.157, 18.036 9.271, 17.998 9.408, 17.952 9.557, 17.903 9.656, 17.869 9.714, 17.850 9.875, 17.795 10.037, 17.737 10.201, 17.676 10.369, 17.612 10.539, 17.543 10.713, 17.471 10.888, 17.396 11.064, 17.317 11.241, 17.237 11.418, 17.154 11.594, 17.070 11.769, 16.985 11.945, 16.901 12.116, 16.816 12.284, 16.732 12.334, 16.707 12.317, 16.874 12.305, 17.073 12.303, 17.272 12.313, 17.467 12.331, 17.661 12.359, 17.855 12.396, 18.048 12.398, 18.061 12.443, 18.255 12.496, 18.448 12.556, 18.644 12.624, 18.838 12.696, 19.034 12.775, 19.223 12.859, 19.410 12.949, 19.594 13.043, 19.773 13.141, 19.948 13.242, 20.117 13.344, 20.279 13.451, 20.436 13.563, 20.585 13.679, 20.724 13.743, 20.790 13.693, 20.854 13.542, 21.050 13.383, 21.257 13.221, 21.469 13.059, 21.682 12.900, 21.889 12.747, 22.088 12.596, 22.284 12.458, 22.468 12.331, 22.639 12.215, 22.798 12.109, 22.946 12.013, 23.084 11.926, 23.211 11.848, 23.329 11.757, 23.464 11.679, 23.595 11.611, 23.724 11.551, 23.855 11.496, 23.993 11.447, 24.141 11.401, 24.303 11.359, 24.484 11.338, 24.580 11.322, 24.651 11.280, 24.847 11.240, 25.059 11.202, 25.286 11.169, 25.524 11.141, 25.770 11.120, 26.022 11.107, 26.275 11.094, 26.510 11.085, 26.741 11.078, 26.964 11.075, 27.178 11.073, 27.380 11.073, 27.569 11.075, 27.741 11.077, 27.896 11.075, 28.027 11.072, 28.140 11.069, 28.238 11.067, 28.323 11.063, 28.398 11.058, 28.465 11.050, 28.523 11.034, 28.573 11.011, 28.612 10.981, 28.646 10.947, 28.677 10.912, 28.705 10.875, 28.733 10.836, 28.759 10.787, 28.779 10.711, 28.783 10.592, 28.765 10.446, 28.732 10.292, 28.693 10.136, 28.652 9.979, 28.611 9.824, 28.570 9.669, 28.530 9.515, 28.490 9.360, 28.456 9.206, 28.424 9.053, 28.394 8.901, 28.365 8.750, 28.338 8.599, 28.314 8.449, 28.291 8.300, 28.271 8.151, 28.255 8.005, 28.241 7.863, 28.231 7.727, 28.225 7.599, 28.222 7.474, 28.224 7.363, 28.231 7.261, 28.242 7.167, 28.259 7.082, 28.281 7.005, 28.309 6.937, 28.343 6.877, 28.383 6.872, 28.387 6.821, 28.433 6.780, 28.484 6.749, 28.540 6.730, 28.601 6.721, 28.666 6.721, 28.735 6.727, 28.806 6.740, 28.880 6.759, 28.956 6.789, 29.032 6.861, 29.105 6.998, 29.173 7.176, 29.237 7.191, 29.243 7.378, 29.306 7.571, 29.371 7.768, 29.438 7.969, 29.505 8.169, 29.573 8.358, 29.636 8.528, 29.693 8.542, 29.697 8.700, 29.750 8.856, 29.801 9.011, 29.853 9.166, 29.904 9.323, 29.956 9.490, 30.011 9.697, 30.079 9.972, 30.173 10.285, 30.276 10.603, 30.378 10.915, 30.472 11.215, 30.555 11.493, 30.618 11.738, 30.653 11.950, 30.651 12.108, 30.605 12.223, 30.525 12.304, 30.421 12.362, 30.302 12.408, 30.178 12.446, 30.053 12.479, 29.931 12.509, 29.818 12.541, 29.717 12.574, 29.624 12.609, 29.530 12.648, 29.431 12.692, 29.319 12.740, 29.195 12.795, 29.055 12.856, 28.895 12.909, 28.713 12.969, 28.511 13.036, 28.294 13.106, 28.063 13.180, 27.822 13.254, 27.573 13.328, 27.320 13.400, 27.064 13.402, 27.059 13.463, 26.808 13.524, 26.561 13.585, 26.322 13.646, 26.092 13.706, 25.876 13.764, 25.675 13.820, 25.493 13.873, 25.331 13.914, 25.204 13.954, 25.099 13.995, 25.011 14.036, 24.935 14.081, 24.868 14.131, 24.806 14.188, 24.745 14.256, 24.682 14.338, 24.599 14.432, 24.507 14.526, 24.417 14.528, 24.416 14.647, 24.304 14.778, 24.182 14.921, 24.049 15.075, 23.903 15.242, 23.745 15.282, 23.705 15.297, 23.743 15.392, 23.986 15.472, 24.233 15.550, 24.461 15.626, 24.670 15.700, 24.862 15.771, 25.037 15.840, 25.197 15.906, 25.341 15.970, 25.473 16.053, 25.640 16.141, 25.790 16.236, 25.926 16.338, 26.054 16.450, 26.174 16.577, 26.292 16.722, 26.407 16.889, 26.522 17.042, 26.618 17.215, 26.720 17.405, 26.827 17.611, 26.935 17.831, 27.042 18.062, 27.145 18.303, 27.243 18.551, 27.332 18.774, 27.410 18.993, 27.484 19.206, 27.554 19.410, 27.619 19.604, 27.680 19.785, 27.735 19.952, 27.785 20.103, 27.830 20.223, 27.870 20.330, 27.906 20.419, 27.938 20.497, 27.966 20.564, 27.991 20.623, 28.016 20.671, 28.040 20.709, 28.068 20.735, 28.100 20.752, 28.135 20.764, 28.173 20.772, 28.211 20.778, 28.249 20.781, 28.289 20.773, 28.335 20.738, 28.398 20.706, 28.512 20.642, 28.636 20.563, 28.758 20.477, 28.875 20.385, 28.986 20.288, 29.091 20.189, 29.191 20.086, 29.287 20.020, 29.382 19.952, 29.467 19.883, 29.541 19.812, 29.604 19.740, 29.655 19.665, 29.692 19.587, 29.715 19.505, 29.723 19.404, 29.745 19.300, 29.763 19.195, 29.777 19.092, 29.787 18.997, 29.793 18.901, 29.797 18.817, 29.799 18.801, 29.799 18.792, 29.795 18.769, 29.796 18.744, 29.798 18.725, 29.802 18.713, 29.808 18.633, 29.856 18.562, 29.906 18.500, 29.957 18.449, 30.011 18.407, 30.067 18.376, 30.125 18.356, 30.184 18.347, 30.243 18.350, 30.301 18.363, 30.359 18.385, 30.417 18.414, 30.476 18.450, 30.535 18.491, 30.593 18.543, 30.649 18.580, 30.665 18.635, 30.690 18.796, 30.735 18.999, 30.762 19.196, 30.777 19.390, 30.786 19.592, 30.787 19.797, 30.781 20.002, 30.766 20.193, 30.744 20.372, 30.721 20.529, 30.677 20.545, 30.672 20.691, 30.608 20.827, 30.525 20.843, 30.516 20.857, 30.505 20.872, 30.494 20.904, 30.470 21.017, 30.380 21.142, 30.259 21.266, 30.116 21.279, 30.101 21.420, 29.925 21.635, 29.734 21.879, 29.506 22.120, 29.267 22.347, 29.023 22.555, 28.776 22.731, 28.532 22.863, 28.296 22.941, 28.066 22.967, 27.892 22.942, 27.744 22.880, 27.619 22.794, 27.511 22.698, 27.414 22.597, 27.325 22.497, 27.243 22.403, 27.169 22.320, 27.097 22.243, 27.028 22.167, 26.958 22.085, 26.882 21.996, 26.800 21.894, 26.710 21.779, 26.609 21.648, 26.496 21.487, 26.392 21.311, 26.275 21.121, 26.149 21.062, 26.109 20.923, 26.015 20.714, 25.875 20.497, 25.733 20.276, 25.591 20.051, 25.451 19.827, 25.331 19.610, 25.212 19.402, 25.095 19.205, 24.981 19.022, 24.871 18.856, 24.767 18.707, 24.670 18.578, 24.583 18.483, 24.519 18.411, 24.463 18.357, 24.411 18.317, 24.362 18.290, 24.312 18.272, 24.258 18.261, 24.197 18.257, 24.125 18.240, 24.027 18.223, 23.912 18.204, 23.781 18.184, 23.634 18.163, 23.469 18.139, 23.288 18.113, 23.090 18.084, 22.875 18.026, 22.646 17.967, 22.405 17.953, 22.342 17.918, 22.177 17.872, 21.931 17.834, 21.688 17.806, 21.453 17.792, 21.239 17.793, 21.201 17.844, 21.160 18.026, 20.971 18.200, 20.745 18.221, 20.713 18.349, 20.504 18.367, 20.471 18.472, 20.254 18.567, 19.998 18.637, 19.757 18.688, 19.548 18.731, 19.327 18.734, 19.311 18.768, 19.081 18.792, 18.845 18.804, 18.604 18.805, 18.361 18.792, 18.106 18.767, 17.869 18.733, 17.658 18.690, 17.457 18.639, 17.264 18.583, 17.079 18.521, 16.899 18.458, 16.725 18.432, 16.656 18.395, 16.556 18.333, 16.387 18.275, 16.226 18.221, 16.067 18.169, 15.908 18.120, 15.751 18.073, 15.595 18.027, 15.440 17.983, 15.284 17.940, 15.128 17.898, 14.972 17.857, 14.814 17.817, 14.655 17.779, 14.495 17.741, 14.332 17.704, 14.166 17.669, 13.996 17.634, 13.822 17.600, 13.644 17.582, 13.540 17.687, 13.656 17.694, 13.664 17.802, 13.784 17.924, 13.931 18.048, 14.072 18.173, 14.208 18.284, 14.325 18.396, 14.444 18.512, 14.563 18.622, 14.675 18.725, 14.778 18.821, 14.874 18.910, 14.963 18.995, 15.047 19.063, 15.117 19.145, 15.200 19.227, 15.285 19.313, 15.373 19.404, 15.468 19.497, 15.568 19.597, 15.675 19.702, 15.789 19.812, 15.908 19.926, 16.033 20.044, 16.161 20.166, 16.293 20.290, 16.426 20.414, 16.560 20.540, 16.695 20.666, 16.830 20.792, 16.965 20.913, 17.093 21.035, 17.226 21.155, 17.357 21.272, 17.486 21.384, 17.616 21.492, 17.742 21.599, 17.866 21.704, 17.987 21.807, 18.105 21.906, 18.217 21.995, 18.319 22.071, 18.405 22.125, 18.478 22.164, 18.535 22.194, 18.583 22.218, 18.625 22.240, 18.669 22.260, 18.715 22.280, 18.762 22.297, 18.814 22.309, 18.871 22.319, 18.933 22.331, 18.997 22.345, 19.063 22.360, 19.130 22.379, 19.202 22.403, 19.280 22.433, 19.368 22.465, 19.465 22.502, 19.570 22.544, 19.682 22.591, 19.796 22.641, 19.911 22.697, 20.024 22.761, 20.133 22.835, 20.235 22.917, 20.328 23.008, 20.414 23.106, 20.494 23.208, 20.569 23.312, 20.641 23.416, 20.709 23.521, 20.770 23.626, 20.824 23.730, 20.868 23.832, 20.904 23.933, 20.933 24.031, 20.957 24.044, 20.959 24.138, 20.978 24.229, 20.992 24.316, 20.999 24.398, 21.001 24.410, 21.000 24.487, 20.995 24.560, 20.984 24.630, 20.968 24.697, 20.945 24.761, 20.918 24.821, 20.885 24.877, 20.847 24.930, 20.805 24.978, 20.757 25.022, 20.705 25.031, 20.693 25.072, 20.636 25.108, 20.576 25.141, 20.513 25.149, 20.496 25.177, 20.432 25.201, 20.366 25.222, 20.296 25.240, 20.223 25.255, 20.144 25.267, 20.048 25.273, 19.954 25.273, 19.846 25.267, 19.743 25.253, 19.634 25.227, 19.528 25.186, 19.421 25.131, 19.314 25.067, 19.207 24.995, 19.100 24.917, 18.995 24.834, 18.891 24.746, 18.790 24.653, 18.692 24.555, 18.602 24.455, 18.516 24.354, 18.433 24.253, 18.353 24.153, 18.277 24.047, 18.197 23.956, 18.129 23.873, 18.071 23.801, 18.032 23.738, 18.002 23.680, 17.977 23.638, 17.960 23.635, 17.958 23.585, 17.936 23.537, 17.916 23.491, 17.895 23.448, 17.875 23.417, 17.856 23.385, 17.832 23.357, 17.809 23.329, 17.781 23.301, 17.751 23.271, 17.715 23.236, 17.666 23.192, 17.597 23.127, 17.498 23.104, 17.461 23.053, 17.376 22.973, 17.243 22.890, 17.103 22.806, 16.961 22.719, 16.817 22.630, 16.671 22.538, 16.522 22.462, 16.403 22.440, 16.368 22.341, 16.215 22.240, 16.059 22.137, 15.902 22.032, 15.744 21.926, 15.586 21.818, 15.428 21.710, 15.270 21.602, 15.114 21.495, 14.959 21.390, 14.808 21.288, 14.661 21.189, 14.520 21.096, 14.385 21.007, 14.258 20.926, 14.141 20.856, 14.045 20.793, 13.956 20.734, 13.872 20.676, 13.790 20.617, 13.707 20.553, 13.620 20.481, 13.527 20.401, 13.424 20.376, 13.394 20.272, 13.270 20.155, 13.136 20.028, 12.995 19.893, 12.848 19.752, 12.698 19.624, 12.565 19.582, 12.520 19.437, 12.366 19.290, 12.215 19.133, 12.062 19.040, 11.973 18.956, 11.889 18.808, 11.743 18.664, 11.603 18.526, 11.470 18.483, 11.429 18.368, 11.313 18.245, 11.191 18.132, 11.076 18.017, 10.971 17.913, 10.875 17.817, 10.786 17.728, 10.704 17.645, 10.626 17.566, 10.550 17.489, 10.477 17.414, 10.404 17.280, 10.285 17.202, 10.214 17.128, 10.148 17.104, 10.125 17.091, 10.011 17.078, 9.878 17.066, 9.755 17.057, 9.648 17.052, 9.560 17.050, 9.486 17.050, 9.423 17.051, 9.364 17.052, 9.307 17.055, 9.246 17.057, 9.187 17.059, 9.128 17.062, 9.068 17.065, 9.006 17.067, 8.945 17.070, 8.882 17.074, 8.819 17.077, 8.755 17.087, 8.689 17.139, 8.605 17.262, 8.489 17.428, 8.353 17.597, 8.212 17.662, 8.155 17.766, 8.065 17.922, 7.919 18.070, 7.770 18.206, 7.616 18.329, 7.457 18.438, 7.293 18.533, 7.124 18.614, 6.950 18.683, 6.773 18.740, 6.591 18.785, 6.407 18.821, 6.221 18.846, 6.032 18.862, 5.843 18.870, 5.652 18.870, 5.461 18.863, 5.271 18.849, 5.080 18.830, 4.891 18.805, 4.703 18.775, 4.517 18.741, 4.333 18.703, 4.151 18.661, 3.973 18.614, 3.797 18.562, 3.624 18.506, 3.454 18.444, 3.288 18.377, 3.126 18.305, 2.967 18.227, 2.813 18.143, 2.664 18.052, 2.520 17.955, 2.383 17.850, 2.252 17.738, 2.128 17.618, 2.012 17.491, 1.904 17.356, 1.804 17.214, 1.713 17.067, 1.630 16.914, 1.557 16.757, 1.492 16.596, 1.437 16.432, 1.390 16.267, 1.353 16.099, 1.325 15.930, 1.305 15.760, 1.292 15.589, 1.286 15.418, 1.285 15.248, 1.290 15.078, 1.300 14.909, 1.313 14.742, 1.330 14.578, 1.351 14.418, 1.376 14.261, 1.405 14.111, 1.439 13.966, 1.477 13.955, 1.480 13.886, 1.501 13.828, 1.519 13.818, 1.523 13.688, 1.570 13.565, 1.621 13.449, 1.677 13.340, 1.738 13.237, 1.802 13.140, 1.870 13.131, 1.877 13.040, 1.949 12.953, 2.025 12.870, 2.105 12.791, 2.188 12.742, 2.246 12.711, 2.283 12.639, 2.376 12.571, 2.473 12.506, 2.576 12.443, 2.685 12.383, 2.799 12.380, 2.805 12.322, 2.925 12.269, 3.045 12.267, 3.050 12.217, 3.176 12.167, 3.310 12.122, 3.446 12.081, 3.585 12.044, 3.724 12.013, 3.863 11.988, 4.002 11.968, 4.141 11.954, 4.282 11.945, 4.425 11.941, 4.571 11.943, 4.722 11.949, 4.878 11.961, 5.040 11.978, 5.210 12.000, 5.386 12.027, 5.566 12.060, 5.750 12.098, 5.935 12.142, 6.121 12.191, 6.306 12.246, 6.488 12.308, 6.666 12.375, 6.841 12.446, 7.010 12.522, 7.175 12.601, 7.335 12.684, 7.489 12.768, 7.638 12.854, 7.781 12.941, 7.917 13.029, 8.047 13.120, 8.170 13.214, 8.285 13.312, 8.391 13.415, 8.489 13.522, 8.578 13.636, 8.656 13.756, 8.725 13.882, 8.785 14.013, 8.837 14.147, 8.882 14.284, 8.922 14.424, 8.959 14.560, 8.993 14.665, 9.031 14.714, 9.077 14.730, 9.127 14.742, 9.178 14.754, 9.229 14.765, 9.280 14.777, 9.333 14.788, 9.382 14.799, 9.432 14.812, 9.481 14.826, 9.529 14.840, 9.578 14.853, 9.626 14.866, 9.677 14.872, 9.735 14.865, 9.806 14.842, 9.897 14.797, 10.014 " />
        </g>
    </g>
</svg>
